<?xml version="1.0" encoding="UTF-8"?>
<svg xmlns="http://www.w3.org/2000/svg" xmlns:xlink="http://www.w3.org/1999/xlink" width="375pt" height="374.999991pt" viewBox="0 0 375 374.999991" version="1.2">
<defs>
<clipPath id="clip1">
  <path d="M 165.066406 88.679688 L 207.816406 88.679688 L 207.816406 131.429688 L 165.066406 131.429688 Z M 165.066406 88.679688 "/>
</clipPath>
</defs>
<g id="surface1">
<rect x="0" y="0" width="375" height="374.999991" style="fill:rgb(100%,100%,100%);fill-opacity:1;stroke:none;"/>
<rect x="0" y="0" width="375" height="374.999991" style="fill:rgb(100%,100%,100%);fill-opacity:1;stroke:none;"/>
<rect x="0" y="0" width="375" height="374.999991" style="fill:rgb(100%,100%,100%);fill-opacity:1;stroke:none;"/>
<path style=" stroke:none;fill-rule:nonzero;fill:rgb(96.469116%,92.158508%,90.979004%);fill-opacity:1;" d="M 186.542969 82.929688 C 185.648438 82.929688 184.761719 82.972656 183.871094 83.058594 C 182.984375 83.148438 182.105469 83.277344 181.230469 83.453125 C 180.355469 83.625 179.492188 83.84375 178.636719 84.101562 C 177.785156 84.359375 176.945312 84.660156 176.121094 85 C 175.296875 85.34375 174.492188 85.722656 173.707031 86.144531 C 172.921875 86.5625 172.15625 87.023438 171.414062 87.515625 C 170.671875 88.011719 169.957031 88.542969 169.269531 89.109375 C 168.578125 89.675781 167.917969 90.273438 167.289062 90.902344 C 166.660156 91.535156 166.0625 92.191406 165.496094 92.882812 C 164.929688 93.570312 164.398438 94.289062 163.902344 95.027344 C 163.40625 95.769531 162.949219 96.535156 162.53125 97.320312 C 162.109375 98.105469 161.730469 98.910156 161.386719 99.734375 C 161.046875 100.558594 160.746094 101.398438 160.488281 102.25 C 160.226562 103.105469 160.011719 103.96875 159.839844 104.84375 C 159.664062 105.71875 159.535156 106.597656 159.445312 107.484375 C 159.359375 108.375 159.316406 109.261719 159.316406 110.15625 C 159.316406 111.046875 159.359375 111.9375 159.445312 112.824219 C 159.535156 113.710938 159.664062 114.59375 159.839844 115.464844 C 160.011719 116.339844 160.226562 117.207031 160.488281 118.058594 C 160.746094 118.910156 161.046875 119.75 161.386719 120.574219 C 161.730469 121.398438 162.109375 122.203125 162.53125 122.988281 C 162.949219 123.777344 163.40625 124.539062 163.902344 125.28125 C 164.398438 126.023438 164.929688 126.738281 165.496094 127.425781 C 166.0625 128.117188 166.660156 128.777344 167.289062 129.40625 C 167.917969 130.039062 168.578125 130.636719 169.269531 131.203125 C 169.957031 131.765625 170.671875 132.296875 171.414062 132.792969 C 172.15625 133.289062 172.921875 133.746094 173.707031 134.167969 C 174.492188 134.585938 175.296875 134.96875 176.121094 135.308594 C 176.945312 135.648438 177.785156 135.949219 178.636719 136.210938 C 179.492188 136.46875 180.355469 136.683594 181.230469 136.859375 C 182.105469 137.03125 182.984375 137.164062 183.871094 137.25 C 184.761719 137.335938 185.648438 137.382812 186.542969 137.382812 C 187.433594 137.382812 188.324219 137.335938 189.210938 137.25 C 190.097656 137.164062 190.976562 137.03125 191.851562 136.859375 C 192.726562 136.683594 193.589844 136.46875 194.445312 136.210938 C 195.296875 135.949219 196.136719 135.648438 196.960938 135.308594 C 197.785156 134.96875 198.589844 134.585938 199.375 134.167969 C 200.164062 133.746094 200.925781 133.289062 201.667969 132.792969 C 202.410156 132.296875 203.125 131.765625 203.8125 131.203125 C 204.503906 130.636719 205.164062 130.039062 205.792969 129.40625 C 206.425781 128.777344 207.023438 128.117188 207.585938 127.425781 C 208.152344 126.738281 208.683594 126.023438 209.179688 125.28125 C 209.675781 124.539062 210.132812 123.777344 210.554688 122.988281 C 210.972656 122.203125 211.355469 121.398438 211.695312 120.574219 C 212.035156 119.75 212.335938 118.910156 212.59375 118.058594 C 212.855469 117.207031 213.070312 116.339844 213.246094 115.464844 C 213.417969 114.59375 213.550781 113.710938 213.636719 112.824219 C 213.722656 111.9375 213.769531 111.046875 213.769531 110.15625 C 213.769531 109.261719 213.722656 108.375 213.636719 107.484375 C 213.550781 106.597656 213.417969 105.71875 213.246094 104.84375 C 213.070312 103.96875 212.855469 103.105469 212.59375 102.25 C 212.335938 101.398438 212.035156 100.558594 211.695312 99.734375 C 211.355469 98.910156 210.972656 98.105469 210.554688 97.320312 C 210.132812 96.535156 209.675781 95.769531 209.179688 95.027344 C 208.683594 94.289062 208.152344 93.570312 207.585938 92.882812 C 207.023438 92.191406 206.425781 91.535156 205.792969 90.902344 C 205.164062 90.273438 204.503906 89.675781 203.8125 89.109375 C 203.125 88.542969 202.410156 88.011719 201.667969 87.515625 C 200.925781 87.023438 200.164062 86.5625 199.375 86.144531 C 198.589844 85.722656 197.785156 85.34375 196.960938 85 C 196.136719 84.660156 195.296875 84.359375 194.445312 84.101562 C 193.589844 83.84375 192.726562 83.625 191.851562 83.453125 C 190.976562 83.277344 190.097656 83.148438 189.210938 83.058594 C 188.324219 82.972656 187.433594 82.929688 186.542969 82.929688 Z M 186.542969 82.929688 "/>
<path style=" stroke:none;fill-rule:nonzero;fill:rgb(74.508667%,9.408569%,36.468506%);fill-opacity:1;" d="M 192.003906 107.742188 C 192.632812 109.265625 194.285156 110.097656 195.886719 109.703125 C 197.542969 109.292969 198.414062 109.304688 200.828125 110.050781 C 198.441406 110.789062 197.585938 110.820312 195.882812 110.402344 C 194.722656 110.113281 193.53125 110.472656 192.722656 111.28125 C 192.421875 111.582031 192.175781 111.945312 192.003906 112.363281 C 191.371094 113.882812 191.949219 115.640625 193.359375 116.492188 C 194.820312 117.375 195.425781 117.988281 196.609375 120.234375 C 194.355469 119.046875 193.753906 118.449219 192.867188 116.980469 C 192.015625 115.570312 190.257812 114.996094 188.734375 115.625 C 188.320312 115.796875 187.957031 116.046875 187.65625 116.347656 C 186.847656 117.15625 186.488281 118.347656 186.777344 119.507812 C 187.1875 121.167969 187.175781 122.035156 186.425781 124.453125 C 185.703125 122.113281 185.648438 121.238281 186.078125 119.507812 C 186.476562 117.910156 185.644531 116.257812 184.121094 115.625 C 182.851562 115.101562 181.421875 115.410156 180.484375 116.347656 C 179.886719 116.945312 179.820312 117.507812 178.785156 118.5625 C 178.234375 119.117188 177.296875 119.679688 176.246094 120.234375 C 176.800781 119.179688 177.363281 118.242188 177.917969 117.6875 C 179.019531 116.609375 179.488281 116.636719 180.132812 115.992188 C 181.066406 115.058594 181.378906 113.628906 180.855469 112.359375 C 180.222656 110.835938 178.574219 110.003906 176.976562 110.398438 C 175.3125 110.808594 174.457031 110.800781 172.027344 110.050781 C 174.382812 109.324219 175.261719 109.277344 176.96875 109.699219 C 178.128906 109.988281 179.324219 109.628906 180.128906 108.820312 C 180.429688 108.519531 180.679688 108.15625 180.851562 107.742188 C 181.484375 106.21875 180.90625 104.460938 179.496094 103.609375 C 177.984375 102.699219 177.402344 102.058594 176.246094 99.867188 C 178.492188 101.050781 179.105469 101.652344 179.992188 103.117188 C 180.84375 104.53125 182.597656 105.105469 184.121094 104.472656 C 184.535156 104.300781 184.902344 104.054688 185.203125 103.753906 C 186.007812 102.945312 186.367188 101.753906 186.082031 100.59375 C 185.671875 98.929688 185.679688 98.070312 186.429688 95.648438 C 187.15625 98 187.203125 98.890625 186.777344 100.589844 C 186.378906 102.1875 187.210938 103.839844 188.734375 104.472656 C 190.003906 105 191.4375 104.6875 192.371094 103.753906 C 193.007812 103.117188 193.097656 102.515625 193.90625 101.707031 C 194.414062 101.199219 195.210938 100.605469 196.613281 99.867188 C 195.867188 101.273438 195.277344 102.070312 194.769531 102.578125 C 193.960938 103.386719 193.367188 103.464844 192.726562 104.105469 C 191.789062 105.042969 191.476562 106.472656 192.003906 107.742188 Z M 192.003906 107.742188 "/>
<g clip-path="url(#clip1)" clip-rule="nonzero">
<path style=" stroke:none;fill-rule:nonzero;fill:rgb(74.508667%,9.408569%,36.468506%);fill-opacity:1;" d="M 177.570312 112.824219 C 175.6875 113.289062 172.878906 112.984375 169.664062 111.964844 C 167.578125 111.308594 165.917969 110.535156 165.082031 110.042969 C 167.15625 108.828125 173.855469 106.355469 177.566406 107.277344 L 179.851562 107.84375 C 179.757812 107.984375 179.65625 108.113281 179.535156 108.230469 C 178.921875 108.84375 178.015625 109.097656 177.167969 108.890625 C 175.289062 108.421875 174.230469 108.492188 171.78125 109.25 L 169.191406 110.050781 L 171.78125 110.851562 C 174.382812 111.65625 175.410156 111.648438 177.175781 111.210938 C 178.222656 110.953125 179.285156 111.386719 179.855469 112.257812 Z M 181.078125 116.941406 C 180.882812 117.132812 180.757812 117.332031 180.589844 117.601562 C 180.339844 117.996094 180.027344 118.492188 179.382812 119.148438 L 179.378906 119.152344 L 179.378906 119.15625 C 178.835938 119.699219 177.988281 120.257812 176.636719 120.972656 L 174.238281 122.238281 L 175.503906 119.839844 C 176.21875 118.488281 176.78125 117.640625 177.324219 117.09375 L 177.328125 117.09375 L 177.332031 117.089844 C 178.015625 116.417969 178.492188 116.125 178.875 115.890625 C 179.136719 115.730469 179.324219 115.613281 179.539062 115.398438 C 180.140625 114.796875 180.386719 113.945312 180.21875 113.132812 L 178.207031 114.351562 C 177.730469 114.636719 177.238281 115.039062 176.738281 115.539062 C 173.902344 118.375 171.777344 123.320312 171.300781 125.167969 C 173.164062 124.6875 178.105469 122.589844 180.882812 119.816406 C 181.402344 119.296875 181.820312 118.777344 182.125 118.273438 L 183.34375 116.257812 C 182.53125 116.089844 181.679688 116.335938 181.078125 116.941406 Z M 180.214844 106.964844 C 180.429688 105.945312 179.984375 104.886719 179.058594 104.328125 C 177.375 103.308594 176.710938 102.550781 175.503906 100.257812 L 174.242188 97.863281 L 176.636719 99.128906 C 179.046875 100.398438 179.765625 101.132812 180.707031 102.6875 C 181.265625 103.613281 182.320312 104.054688 183.34375 103.84375 L 182.125 101.828125 C 181.121094 100.164062 178.921875 98.390625 175.9375 96.832031 C 173.980469 95.8125 172.25 95.179688 171.320312 94.941406 C 171.558594 95.875 172.191406 97.605469 173.21875 99.566406 C 174.777344 102.554688 176.550781 104.75 178.203125 105.75 Z M 185.265625 100.796875 C 184.800781 98.910156 184.871094 97.851562 185.628906 95.402344 L 186.425781 92.8125 L 187.226562 95.402344 C 187.984375 97.855469 188.058594 98.914062 187.589844 100.792969 C 187.328125 101.84375 187.761719 102.902344 188.632812 103.476562 L 189.199219 101.191406 C 189.648438 99.394531 189.347656 96.621094 188.359375 93.382812 C 187.699219 91.210938 186.917969 89.507812 186.4375 88.679688 C 185.933594 89.527344 185.136719 91.242188 184.472656 93.386719 C 183.488281 96.566406 183.195312 99.339844 183.65625 101.195312 L 184.222656 103.476562 C 184.359375 103.386719 184.488281 103.28125 184.609375 103.160156 C 185.222656 102.546875 185.476562 101.640625 185.265625 100.796875 Z M 193 107.84375 C 193.574219 108.714844 194.632812 109.148438 195.683594 108.890625 C 197.570312 108.425781 198.628906 108.496094 201.074219 109.25 L 203.660156 110.050781 L 201.074219 110.851562 C 198.597656 111.617188 197.589844 111.683594 195.679688 111.214844 C 194.835938 111.003906 193.929688 111.257812 193.316406 111.871094 C 193.195312 111.992188 193.089844 112.121094 192.996094 112.261719 L 195.28125 112.824219 C 199.027344 113.75 205.769531 111.261719 207.804688 110.058594 C 206.980469 109.574219 205.300781 108.789062 203.183594 108.125 C 199.964844 107.117188 197.160156 106.8125 195.285156 107.277344 Z M 187.589844 119.304688 C 188.054688 121.195312 187.984375 122.253906 187.226562 124.699219 L 186.425781 127.289062 L 185.625 124.699219 C 184.859375 122.222656 184.792969 121.214844 185.265625 119.308594 C 185.527344 118.257812 185.09375 117.195312 184.222656 116.625 L 183.65625 118.910156 C 183.210938 120.707031 183.507812 123.480469 184.492188 126.714844 C 185.15625 128.894531 185.933594 130.597656 186.417969 131.425781 C 186.921875 130.578125 187.71875 128.863281 188.382812 126.714844 C 189.367188 123.535156 189.660156 120.765625 189.199219 118.90625 L 188.636719 116.621094 C 188.496094 116.714844 188.367188 116.820312 188.25 116.9375 C 187.632812 117.554688 187.378906 118.460938 187.589844 119.304688 Z M 190.730469 101.828125 L 189.515625 103.84375 C 190.328125 104.011719 191.175781 103.761719 191.78125 103.160156 C 192.007812 102.933594 192.148438 102.707031 192.324219 102.417969 C 192.542969 102.0625 192.816406 101.617188 193.3125 101.117188 C 193.972656 100.460938 194.894531 99.828125 196.21875 99.128906 L 198.617188 97.863281 L 197.351562 100.257812 C 196.648438 101.589844 196.015625 102.515625 195.359375 103.175781 C 194.863281 103.671875 194.417969 103.941406 194.0625 104.15625 C 193.777344 104.332031 193.550781 104.46875 193.316406 104.703125 C 192.714844 105.304688 192.46875 106.15625 192.636719 106.96875 L 194.652344 105.75 C 195.121094 105.464844 195.617188 105.066406 196.117188 104.566406 C 198.953125 101.730469 201.078125 96.78125 201.554688 94.9375 C 199.695312 95.414062 194.75 97.511719 191.972656 100.289062 C 191.453125 100.804688 191.035156 101.324219 190.730469 101.828125 Z M 192.636719 113.136719 C 192.421875 114.160156 192.867188 115.214844 193.792969 115.773438 C 195.347656 116.714844 196.082031 117.433594 197.351562 119.84375 L 198.613281 122.238281 L 196.21875 120.976562 C 193.792969 119.699219 193.105469 119 192.148438 117.414062 C 191.589844 116.488281 190.535156 116.046875 189.511719 116.257812 L 190.730469 118.273438 C 191.691406 119.867188 193.867188 121.617188 196.851562 123.207031 C 198.855469 124.277344 200.609375 124.929688 201.539062 125.171875 C 201.296875 124.242188 200.664062 122.507812 199.640625 120.539062 C 198.078125 117.554688 196.304688 115.355469 194.648438 114.355469 Z M 192.636719 113.136719 "/>
</g>
</g>
</svg>
